<?xml version="1.0" encoding="utf-8"?>
<svg width="13" height="12" viewBox="0 0 13 12" fill="none" xmlns="http://www.w3.org/2000/svg">
  <path d="M 7.428 0.927 L 8.161 3.182 C 8.295 3.594 8.679 3.873 9.112 3.873 L 11.483 3.873 C 12.452 3.873 12.855 5.113 12.071 5.682 L 10.153 7.076 C 9.802 7.331 9.655 7.782 9.789 8.194 L 10.522 10.45 C 10.821 11.371 9.767 12.137 8.983 11.568 L 7.065 10.174 C 6.896 10.051 6.699 9.988 6.5 9.983 L 6.5 0.237 C 6.893 0.245 7.281 0.475 7.428 0.927 Z" style="fill: rgb(204, 204, 204);"/>
  <path d="M 1.443 11.073 L 2.176 8.818 C 2.31 8.406 2.694 8.127 3.127 8.127 L 5.498 8.127 C 6.467 8.127 6.87 6.887 6.086 6.318 L 4.168 4.924 C 3.817 4.669 3.67 4.218 3.804 3.806 L 4.537 1.55 C 4.836 0.629 3.782 -0.137 2.998 0.432 L 1.08 1.826 C 0.911 1.949 0.714 2.012 0.515 2.017 L 0.515 11.763 C 0.908 11.755 1.296 11.525 1.443 11.073 Z" style="fill: rgb(255, 205, 0);" transform="matrix(-1, 0, 0, -1, 7.015263, 11.999687)"/>
</svg>