<svg width="13" height="12" viewBox="0 0 13 12" fill="none" xmlns="http://www.w3.org/2000/svg">
<path d="M5.13292 0.92705C5.43228 0.00573919 6.73569 0.00573989 7.03504 0.927051L7.76784 3.18237C7.90171 3.5944 8.28567 3.87336 8.71889 3.87336L11.0903 3.87336C12.059 3.87336 12.4618 5.11297 11.6781 5.68237L9.75957 7.07624C9.40908 7.33088 9.26243 7.78225 9.3963 8.19427L10.1291 10.4496C10.4285 11.3709 9.37397 12.137 8.59026 11.5676L6.67177 10.1738C6.32128 9.91912 5.84668 9.91912 5.4962 10.1738L3.5777 11.5676C2.79399 12.137 1.73951 11.3709 2.03886 10.4496L2.77166 8.19427C2.90554 7.78225 2.75888 7.33088 2.40839 7.07624L0.489897 5.68237C-0.293816 5.11297 0.108959 3.87336 1.07768 3.87336L3.44907 3.87336C3.8823 3.87336 4.26625 3.5944 4.40013 3.18237L5.13292 0.92705Z" fill="#CCCCCC"/>
</svg>
